<svg width="500" height="166" xmlns="http://www.w3.org/2000/svg" xml:space="preserve" enable-background="new 0 0 500 166" version="1.1">
  <!-- 添加透明背景矩形，方便CSS控制 -->
  <rect width="100%" height="100%" fill="currentColor" fill-opacity="0.05" rx="8" ry="8"/>

 <g>
  <title>Layer 1</title>
  <path id="svg_1" d="m361,167c-120.33333,0 -240.16666,0 -360,0c0,-55.33334 0,-110.66667 0,-166c166.66667,0 333.33334,0 500,0c0,55.33333 0,110.66666 0,166c-46.5,0 -93,0 -140,0m-47.98654,-31.01897c-0.37229,0.35993 -0.7446,0.71985 -1.11688,1.07978c0.69699,0.31491 1.39398,0.62982 2.84985,0.83064c0.45325,-1.24529 0.90649,-2.49057 2.05386,-3.87888c0.73874,-0.35107 1.47748,-0.70216 2.52222,-1.45451c-0.24628,-0.51643 -0.49252,-1.03287 -1.27493,-2.07082c-0.76606,-0.28614 -1.53208,-0.57229 -2.57337,-1.27488c-0.50244,-0.20954 -1.40259,-0.66553 -1.44818,-0.59192c-0.7764,1.25271 -1.44687,2.5711 -2.09595,3.89915c0,0 0.05027,-0.00838 -0.45666,0.47449c0.81341,0.37692 1.62686,0.75385 2.42261,1.75272c-0.11634,0.39628 -0.23267,0.79258 -0.88257,1.23423m24.49081,-6.45283c-1.49264,-1.84658 -2.99298,-3.6646 -6.43902,-1.56413c-1.58783,0.07342 -3.17566,0.14683 -5.11725,0.2366c0,1.81996 -0.00244,3.27443 0.00137,4.72889c0.00128,0.49357 -0.0603,1.0039 0.04093,1.47791c0.62683,2.93517 3.93264,3.73714 6.54364,1.5952c0,0 -0.06733,0.04544 0.64505,0.71248c0.65963,-2.25116 1.31927,-4.50231 2.30819,-6.72722c0,0 0.32975,-0.01888 0.51316,0.59721c0.11651,0.57984 0.23303,1.15969 0.50442,2.5103c0.3151,-1.56063 0.47247,-2.34019 0.99951,-3.56724m-40.48352,1.99405c0,0 0.06992,-0.39849 0.78583,-0.57062c2.08163,-0.96655 4.16327,-1.93309 6.24493,-2.89964c-0.07278,-0.38394 -0.14557,-0.76788 -0.21832,-1.15182c-4.01492,0 -8.02985,0 -11.3541,0c0.61439,3.31583 1.14075,6.15644 1.72254,9.6213c-0.14142,0.86793 -0.28287,1.73585 -0.34476,2.11569c1.64066,0 3.03363,0 5.52097,0c-0.65009,-2.00461 -1.41907,-4.37596 -2.35709,-7.11491m-162.65434,-92.51217c-0.45479,0.36479 -0.90958,0.72958 -1.99129,1.19402c-1.16977,1.1763 -2.33954,2.35261 -4.06328,3.81371c-0.49968,0.88448 -0.99936,1.76895 -2.0711,3.12451c-0.62744,1.8733 -1.25488,3.7466 -2.149,6.37164c0.02474,2.15963 0.04947,4.31926 -0.07003,7.35856c0.04877,2.37371 0.09754,4.74742 0.00232,8.00027c0.04772,2.37272 0.09545,4.74545 -0.00032,7.99779c0.04619,2.37281 0.09239,4.7456 -0.00461,8.01857c0.0476,3.03376 0.09519,6.06752 -0.00075,10.02643c0.04513,5.00896 0.09027,10.01792 0.17275,15.71289c4.04486,5.11659 9.41725,7.30461 16.61202,7.24742c4.13082,-1.92787 8.26164,-3.85574 12.99168,-6.03539c2.10881,-1.80932 4.21764,-3.61864 6.94043,-5.71477c1.7957,-1.54603 3.5914,-3.09206 6.02257,-4.95728c2.785,-2.37428 5.57001,-4.74857 8.97008,-7.34685c1.80531,-1.5832 3.61062,-3.16642 6.04168,-4.98109c3.88884,-3.17267 7.77767,-6.34534 13.0345,-10.63408c-5.07515,-2.36367 -8.93405,-4.16091 -13.55472,-6.20912c-1.33188,-0.03564 -2.66377,-0.07129 -4.08966,-0.57839c0,0 -0.19891,-0.43812 0.16225,-1.00706c2.07521,-2.54326 4.15044,-5.08653 6.78435,-8.31449c-3.33608,-1.1957 -5.71741,-2.04921 -8.87604,-3.15346c-1.07855,-0.01894 -2.15709,-0.03789 -3.97907,-0.23398c-0.75025,0.12502 -1.50053,0.25004 -2.95091,0.26268c-1.09918,0.36425 -2.19838,0.72851 -4.05562,1.01757c-0.75743,0.05752 -1.51486,0.11503 -2.84706,-0.17995c1.45798,-4.43726 2.91596,-8.87451 4.54944,-13.84593c-2.75517,-0.21383 -4.84587,-0.37609 -7.61267,-0.67607c-1.11061,0.27266 -2.22124,0.54532 -3.98471,0.76251c-0.78122,0.36271 -1.56244,0.72541 -2.94981,1.10751c-0.83202,0.52703 -1.66402,1.05406 -3.09681,1.78035c-0.77713,0.66221 -1.55424,1.32443 -2.89913,2.29782c-0.7679,0.25425 -1.53582,0.50849 -2.37299,0.00654c-0.0629,-0.74937 -0.12581,-1.49873 -0.05205,-3.1686c0,-3.72221 0,-7.44442 0,-12.00177c-3.20914,1.10313 -5.62845,1.93475 -8.61244,2.93749m-66.12436,20.11271c-2.29115,1.0126 -4.58231,2.02521 -6.94934,3.07134c2.29436,3.68597 4.18887,6.72958 5.28516,9.6664c-1.55668,0.20013 -3.11336,0.40027 -5.4365,0.70346c-3.29673,1.82717 -6.59345,3.65434 -10.84471,6.01054c5.38084,4.2385 9.49754,7.48124 13.93041,11.28103c1.8963,1.46032 3.7926,2.92063 5.99997,4.94219c1.86774,1.43366 3.73548,2.86733 5.91928,4.88331c1.90147,1.46654 3.80295,2.93307 6.04234,4.98436c2.54763,1.99793 5.09526,3.99584 7.9771,6.51788c2.59503,1.67064 5.19007,3.34127 8.31426,5.53862c2.82391,0.32326 5.64782,0.64653 9.22481,1.02373c5.23075,-1.16846 10.32998,-2.55787 13.23516,-8.73597c-0.05175,-6.01117 -0.10349,-12.02234 -0.02709,-18.9397c-0.05072,-3.36341 -0.10144,-6.72684 -0.0108,-10.98011c-0.0543,-2.70433 -0.10859,-5.40867 -0.01713,-9.00972c-0.05535,-3.03083 -0.11071,-6.06168 -0.0123,-9.89064c-0.31562,-2.73074 -0.63124,-5.46149 -0.89078,-8.88723c-0.6581,-1.43518 -1.3162,-2.87036 -2.01704,-4.90438c-0.71747,-0.93343 -1.43493,-1.86687 -2.47879,-3.40469c-1.831,-1.26498 -3.662,-2.52996 -6.26342,-3.98663c-2.56541,-0.90586 -5.13082,-1.81173 -8.28444,-2.9253c0,6.15582 0,11.06533 -0.64886,15.89308c-1.05432,-0.74826 -2.10863,-1.49651 -3.48425,-2.77675c-1.2717,-0.66034 -2.5434,-1.32067 -4.37119,-2.32521c-0.81297,-0.24294 -1.62593,-0.48588 -3.01139,-0.98689c-0.8105,-0.08618 -1.621,-0.17236 -3.19769,-0.57266c-2.37469,0.24839 -4.74937,0.49678 -7.03013,0.73534c1.37592,5.3759 2.59684,10.14622 3.28439,14.86186c-0.49647,-0.17899 -0.99293,-0.35798 -2.11892,-0.8604c-1.12212,-0.29729 -2.24424,-0.59458 -4.14925,-1.09118c-1.06883,-0.02275 -2.13764,-0.04551 -4.00184,-0.25772c-1.07247,0.15298 -2.14494,0.30596 -3.96702,0.42204m293.01201,23.40101c0.01486,-10.32683 0.02685,-20.65366 0.04599,-30.98047c0.00876,-4.72533 -2.81519,-6.85993 -7.02902,-6.39958c-5.40247,0.5902 -13.87232,-3.58788 -15.08698,4.98273c-1.49618,10.55698 -0.35736,21.4874 -0.35736,32.39033c2.28943,0 4.02637,0 6.37457,0c0,-10.45242 0,-20.66825 0,-30.92166c3.53769,0 6.45694,0 9.97116,0c0,10.57251 0,20.7932 0,30.94414c2.74765,0.1973 4.89597,0.35156 7.38041,1.20097c-0.70203,3.03973 -4.59482,5.58329 -1.88956,9.97442c-4.84854,-4.17757 -8.56058,-8.4623 -7.70795,-15.88663c0.89704,-7.81079 0.20093,-15.80454 0.20093,-23.77847c-2.31769,0 -4.06702,0 -6.2027,0c0,7.65732 -0.08444,15.10066 0.02448,22.54116c0.1029,7.03282 -2.1995,13.00313 -7.2905,17.87611c-2.23306,2.13744 -4.47113,4.26967 -6.78335,6.47726c1.32659,1.69823 2.43557,3.11785 4.11938,5.2733c4.48972,-4.69866 8.74731,-9.15441 13.23364,-13.8495c2.37866,2.77961 4.83499,5.64994 7.47992,8.74067c1.64862,-1.22046 3.19183,-2.36289 4.27521,-3.1649c-0.40253,-2.09807 -0.68601,-3.57555 -0.38196,-5.494c1.00269,0.4119 2.00537,0.8238 3.25449,1.33693c2.66916,-5.86768 5.16076,-11.34497 7.65234,-16.82226c0.83307,9.43711 2.06152,18.84551 -5.67621,26.36493c1.90564,1.59485 3.49759,2.92717 5.18174,4.33665c12.91644,-13.98246 6.17373,-30.9458 8.69329,-46.46494c2.26679,-0.16534 4.69403,-0.34238 6.98462,-0.50945c0,-2.35678 0,-4.40952 0,-6.51967c-2.64981,-0.12237 -4.92666,-0.22751 -7.52685,-0.34758c0,-4.98689 0,-9.62329 0,-14.43493c-2.29035,0 -4.23694,0 -6.77918,0c0,4.90071 0,9.6323 0,14.7436c-3.68597,0 -6.78189,0 -9.98129,0c0,2.47285 0,4.51529 0,6.61533c2.40256,0.1764 4.46921,0.32814 7.81622,0.5739c-3.23614,7.72624 -6.18753,14.7727 -9.99548,21.20161m-96.30652,9.66393c0.01202,-3.99097 0.19504,-7.99082 -0.01157,-11.97044c-0.21096,-4.06439 -2.25146,-7.4312 -6.49243,-7.57911c-9.62028,-0.33552 -19.28338,-0.3886 -28.87939,0.22288c-2.25638,0.14379 -6.03296,3.25399 -6.17311,5.20993c-0.65837,9.18842 -0.29285,18.45019 -0.29285,27.59644c2.46617,0 4.40584,0 6.84915,0c0,-7.66252 0.08162,-15.10398 -0.04146,-22.54206c-0.04711,-2.84857 0.69529,-4.31758 3.87984,-4.25827c6.81616,0.12693 13.6377,0.04763 20.45567,-0.046c2.76441,-0.03796 3.84055,1.12128 3.7902,3.89023c-0.12931,7.10626 0.80334,14.38791 -4.77207,20.34163c2.25092,1.62718 3.9119,2.82791 6.72595,4.8622c1.85227,-5.57886 3.38578,-10.19773 4.96207,-15.72743m41.26025,-15.38239c0,-12.27627 0,-24.55254 0,-36.78085c-2.59338,0 -4.69845,0 -7.07531,0c0,11.93617 -0.11872,23.58058 0.03662,35.22134c0.13031,9.76325 -0.36356,19.31738 -6.63983,27.86098c2.01159,1.4765 3.69177,2.70973 5.4978,4.03533c6.85678,-8.89155 8.34555,-18.91092 8.18072,-30.3368m-80.51554,-24.0181c13.73921,0 27.47842,0 41.53315,0c0,-2.50482 0,-4.52449 0,-7.0278c-6.80508,0 -13.21115,0 -19.74411,0c-0.20422,-2.19477 -0.36502,-3.92295 -0.51338,-5.51739c-2.49937,0 -4.57515,0 -6.76013,0c-0.12108,1.93118 -0.22247,3.54826 -0.36908,5.88673c-6.63405,0 -13.15782,0 -19.61195,0c0,2.53098 0,4.32232 0,6.46097c1.61526,0.07411 3.06642,0.1407 5.4655,0.19749m23.56768,17.30209c0.66645,-0.00042 1.33484,0.03244 1.99903,-0.00648c5.57832,-0.32683 7.765,-2.63937 7.71849,-8.14232c-0.04434,-5.2463 -1.9299,-6.99979 -7.91977,-7.07724c-5.3299,-0.06892 -10.66782,-0.1257 -15.99115,0.08791c-4.84813,0.19454 -6.31082,2.15519 -6.2348,7.58095c0.07377,5.26513 1.73107,7.28902 6.48823,7.46886c4.32628,0.16356 8.66232,0.06907 13.93997,0.08832m38.87688,-15.63474c-3.75381,12.51099 -7.5076,25.02199 -11.39419,37.9755c1.26727,0.5254 3.173,1.3155 6.13577,2.54382c4.40729,-13.34465 8.64975,-26.19018 13.07962,-39.60308c-3.05548,-0.60999 -5.11383,-1.02092 -7.8212,-0.91624m29.38547,23.67769c1.82391,5.11137 3.64782,10.22274 5.578,15.63199c2.34747,-0.99613 4.23264,-1.79607 6.29273,-2.67024c-4.33777,-12.7997 -8.51709,-25.13195 -12.78507,-37.72574c-2.15866,0.70486 -4.13498,1.35017 -6.49008,2.11917c2.42767,7.49692 4.76263,14.70752 7.40442,22.64482m-83.39842,15.62893c2.40972,5.66037 7.49922,3.89505 11.70073,3.96071c6.29794,0.09842 7.93188,-1.93199 7.86549,-8.60051c-0.06546,-6.57304 -1.37818,-7.91334 -7.82691,-7.99132c-11.83009,-0.14305 -11.93528,-0.03842 -11.73931,12.63112m39.80302,33.77268c-1.97519,0.25987 -3.95038,0.51975 -5.92825,0.77998c0,2.47699 0,4.53553 0,7.0949c3.27002,0.20463 6.94085,0.43435 10.08862,0.63134c-0.38229,-2.82255 -0.61984,-4.57647 -0.94571,-6.98233c-0.26221,-0.11682 -1.40527,-0.62608 -3.21466,-1.52389m77.81766,7.06346c0.67462,0.22008 1.34924,0.44016 2.02389,0.66022c-0.18832,0.41759 -0.37664,0.83516 -0.56497,1.25274c-1.02451,-0.69824 -2.04901,-1.3965 -3.07352,-2.09474c1.27619,-1.13728 2.55237,-2.27456 4.0593,-3.61749c-3.27118,-1.38635 -6.54803,-2.77512 -9.82489,-4.16388c-0.19986,0.5019 -0.39972,1.00379 -0.59958,1.50569c1.31937,0.41619 2.63876,0.83238 4.5264,1.42783c-1.9209,0.5907 -3.20816,0.98654 -4.49539,1.38238c0.01846,0.24926 0.03695,0.49852 0.05545,0.74779c1.33941,0.25517 2.67883,0.51035 4.68475,0.8925c-0.74014,1.23912 -1.31497,2.20151 -1.44681,2.42221c0.50278,-0.04866 2.20224,-0.21312 4.65537,-0.41525m-15.71503,4.37589c0.33258,-0.27098 0.66516,-0.54198 0.99774,-0.81296c-0.40374,-0.23825 -0.80749,-0.4765 -1.8204,-0.24909" fill="#0C1158"/>
  <path id="svg_2" d="m361.11853,92.96391c-3.16052,-3.64036 0.73227,-6.18392 1.23682,-9.55038c-0.19748,-0.32674 -0.24472,-0.27217 -0.24475,-0.27217c2.95141,-7.04647 5.9028,-14.09293 9.13894,-21.81917c-3.34701,-0.24576 -5.41366,-0.3975 -7.81622,-0.5739c0,-2.10004 0,-4.14248 0,-6.61533c3.1994,0 6.29532,0 9.98129,0c0,-5.1113 0,-9.84289 0,-14.7436c2.54224,0 4.48883,0 6.77918,0c0,4.81164 0,9.44804 0,14.43493c2.60019,0.12007 4.87704,0.22521 7.52685,0.34758c0,2.11015 0,4.16289 0,6.51967c-2.29059,0.16707 -4.71783,0.34411 -6.98462,0.50945c-2.51956,15.51914 4.22315,32.48248 -8.69329,46.46494c-1.68415,-1.40948 -3.2761,-2.7418 -5.18174,-4.33665c7.73773,-7.51942 6.50928,-16.92782 5.67621,-26.36493c-2.49158,5.47729 -4.98318,10.95458 -7.65234,16.82226c-1.24912,-0.51313 -2.2518,-0.92503 -3.53098,-1.09644c-0.27646,0.24048 -0.23535,0.27374 -0.23535,0.27374z" fill="#F5F5F8"/>
  <path id="svg_3" d="m264.92615,92.64314c-1.5549,5.07429 -3.08841,9.69316 -4.94068,15.27202c-2.81405,-2.03429 -4.47503,-3.23502 -6.72595,-4.8622c5.57541,-5.95372 4.64276,-13.23537 4.77207,-20.34163c0.05035,-2.76895 -1.02579,-3.92819 -3.7902,-3.89023c-6.81797,0.09363 -13.63951,0.17293 -20.45567,0.046c-3.18455,-0.05931 -3.92695,1.4097 -3.87984,4.25827c0.12308,7.43808 0.04146,14.87954 0.04146,22.54206c-2.44331,0 -4.38298,0 -6.84915,0c0,-9.14625 -0.36552,-18.40802 0.29285,-27.59644c0.14015,-1.95594 3.91673,-5.06614 6.17311,-5.20993c9.59601,-0.61148 19.25911,-0.5584 28.87939,-0.22288c4.24097,0.14791 6.28147,3.51472 6.49243,7.57911c0.20661,3.97962 0.02359,7.97947 -0.00982,12.42585z" fill="#F5F5F8"/>
  <path id="svg_4" d="m362.18732,83.06596c-2.11893,-0.17511 -4.26725,-0.32937 -7.0149,-0.52667c0,-10.15094 0,-20.37163 0,-30.94414c-3.51422,0 -6.43347,0 -9.97116,0c0,10.25341 0,20.46924 0,30.92166c-2.3482,0 -4.08514,0 -6.37457,0c0,-10.90293 -1.13882,-21.83335 0.35736,-32.39033c1.21466,-8.57061 9.68451,-4.39253 15.08698,-4.98273c4.21383,-0.46035 7.03778,1.67425 7.02902,6.39958c-0.01914,10.32681 -0.03113,20.65364 0.38229,31.28925c0.42829,0.30878 0.47553,0.25421 0.50498,0.23338z" fill="#FBFBFC"/>
  <path id="svg_5" d="m306.20373,77.2767c0.16889,10.95452 -1.31988,20.97389 -8.17666,29.86544c-1.80603,-1.3256 -3.48621,-2.55883 -5.4978,-4.03533c6.27627,-8.5436 6.77014,-18.09773 6.63983,-27.86098c-0.15534,-11.64076 -0.03662,-23.28517 -0.03662,-35.22134c2.37686,0 4.48193,0 7.07531,0c0,12.22831 0,24.50458 -0.00406,37.25221z" fill="#F6F6F9"/>
  <path id="svg_6" d="m361.06012,92.91065c0.2662,1.45748 0.54968,2.93496 0.95221,5.03303c-1.08338,0.80201 -2.62659,1.94444 -4.27521,3.1649c-2.64493,-3.09073 -5.10126,-5.96106 -7.47992,-8.74067c-4.48633,4.69509 -8.74392,9.15084 -13.23364,13.8495c-1.68381,-2.15545 -2.79279,-3.57507 -4.11938,-5.2733c2.31222,-2.20759 4.55029,-4.33982 6.78335,-6.47726c5.091,-4.87298 7.3934,-10.84329 7.2905,-17.87611c-0.10892,-7.4405 -0.02448,-14.88384 -0.02448,-22.54116c2.13568,0 3.88501,0 6.2027,0c0,7.97393 0.69611,15.96768 -0.20093,23.77847c-0.85263,7.42433 2.85941,11.70906 7.93558,15.51124c0.22763,-0.37538 0.18652,-0.40864 0.16922,-0.42864z" fill="#F7F8FA"/>
  <path id="svg_7" d="m225.21829,52.79214c-1.92512,-0.06169 -3.37628,-0.12828 -4.99154,-0.20239c0,-2.13865 0,-3.92999 0,-6.46097c6.45413,0 12.9779,0 19.61195,0c0.14661,-2.33847 0.248,-3.95555 0.36908,-5.88673c2.18498,0 4.26076,0 6.76013,0c0.14836,1.59444 0.30916,3.32262 0.51338,5.51739c6.53296,0 12.93903,0 19.74411,0c0,2.50331 0,4.52298 0,7.0278c-14.05473,0 -27.79394,0 -42.00711,0.0049z" fill="#F1F1F5"/>
  <path id="svg_8" d="m248.78699,70.08933c-4.80471,-0.01925 -9.14075,0.07524 -13.46703,-0.08832c-4.75716,-0.17984 -6.41446,-2.20373 -6.48823,-7.46886c-0.07602,-5.42576 1.38667,-7.38641 6.2348,-7.58095c5.32333,-0.21361 10.66125,-0.15683 15.99115,-0.08791c5.98987,0.07745 7.87543,1.83094 7.91977,7.07724c0.04651,5.50295 -2.14017,7.81549 -7.71849,8.14232c-0.66419,0.03892 -1.33258,0.00606 -2.47197,0.00648m0.32771,-9.14505c-3.81021,0.00183 -7.62367,-0.07414 -11.42734,0.08444c-0.61181,0.0255 -1.18002,1.09721 -1.76838,1.68529c0.56979,0.42646 1.13066,1.20789 1.71081,1.22248c4.13884,0.10414 8.28304,0.10459 12.42159,-0.00758c0.61964,-0.01679 1.21867,-0.79474 1.82724,-1.22057c-0.61557,-0.5833 -1.23113,-1.16659 -2.76392,-1.76406z" fill="#FAFAFB"/>
  <path id="svg_9" d="m288.4613,54.19678c2.38288,0.15313 4.44123,0.56406 7.49671,1.17405c-4.42987,13.4129 -8.67233,26.25843 -13.07962,39.60308c-2.96277,-1.22832 -4.8685,-2.01842 -6.13577,-2.54382c3.88659,-12.95351 7.64038,-25.46451 11.71868,-38.23331z" fill="#F5F5F8"/>
  <path id="svg_10" d="m317.36887,77.76894c-2.48838,-7.57396 -4.82334,-14.78456 -7.25101,-22.28148c2.3551,-0.769 4.33142,-1.41431 6.49008,-2.11917c4.26798,12.59379 8.4473,24.92604 12.78507,37.72574c-2.06009,0.87417 -3.94526,1.67411 -6.29273,2.67024c-1.93018,-5.40925 -3.75409,-10.52062 -5.73141,-15.99533z" fill="#F5F5F8"/>
  <path id="svg_11" d="m234.07501,93.33351c-0.14712,-12.24184 -0.04193,-12.34647 11.78816,-12.20342c6.44873,0.07798 7.76145,1.41828 7.82691,7.99132c0.06639,6.66852 -1.56755,8.69893 -7.86549,8.60051c-4.20151,-0.06566 -9.29101,1.69966 -11.74958,-4.38841m6.6227,-3.86199c0.33441,3.93022 3.31558,2.50056 5.15491,2.09267c0.71873,-0.15939 0.91981,-2.65308 1.35665,-4.08359c-0.38823,-0.32554 -0.77645,-0.65109 -1.16468,-0.97663c-1.76842,0.69008 -3.53684,1.38015 -5.34688,2.96755z" fill="#F1F1F5"/>
  <path id="svg_12" d="m120.71891,60.98763c0.05535,3.03084 0.11071,6.06169 -0.25819,9.55776c-1.9459,1.81315 -3.79098,2.93265 -4.93251,4.54901c-4.63032,6.55632 -9.04448,13.2653 -13.79506,19.60386c-0.40513,-3.44674 -0.55359,-6.57938 -0.35814,-9.76201c1.34044,-0.85471 2.62935,-1.47199 3.2852,-2.4951c3.72123,-5.80491 7.14664,-11.80437 11.00162,-17.51564c1.13629,-1.68346 3.34165,-2.64533 5.05708,-3.93788z" fill="#73C2FF"/>
  <path id="svg_13" d="m160.12125,106.41254c-2.10881,1.80932 -4.21764,3.61864 -6.96186,5.47094c-1.55293,-0.80159 -2.47047,-1.64617 -3.43197,-2.53122c-2.64252,1.30066 -5.237,4.4727 -7.84076,0.0332c-0.21131,-0.36028 -1.64816,0.17726 -2.3133,-0.13425c-1.27043,-0.59502 -2.39503,-1.50138 -3.44036,-2.54316c0.71675,-1.07328 1.29368,-1.88195 2.12516,-2.80924c0.7499,-0.38248 1.24524,-0.64635 1.88385,-0.60346c3.73453,5.47562 4.88748,0.36696 6.98748,-1.56574c0.70739,-1.09949 1.28744,-1.92005 2.17003,-2.55215c1.07679,1.87929 1.85105,3.57011 3.03901,6.16435c2.10347,-3.08764 3.88855,-5.7079 5.91664,-8.3349c0.24303,-0.00675 0.72907,-0.01986 1.06298,0.06956c0.49029,3.17164 0.64669,6.25385 0.8031,9.33607z" fill="#4895F3"/>
  <path id="svg_14" d="m101.98984,95.01236c4.49389,-6.65266 8.90805,-13.36164 13.53837,-19.91796c1.14153,-1.61636 2.98661,-2.73586 4.85963,-4.10066c0.40567,2.68746 0.45996,5.3918 0.09947,8.56247c-1.77543,1.79692 -3.40382,2.94633 -4.44866,4.49057c-3.78868,5.59952 -7.38165,11.33146 -11.31608,16.85321c-1.08627,-1.06932 -1.90492,-1.97844 -2.72294,-3.26271c-0.00284,-1.12508 -0.00631,-1.875 -0.00979,-2.62492z" fill="#65B8FF"/>
  <path id="svg_15" d="m148.99698,98.98899c-0.58005,0.82057 -1.1601,1.64113 -2.19864,2.65752c-1.57446,-1.42059 -2.6904,-3.03702 -3.80386,-5.02461c0.32952,-1.79274 0.65658,-3.21431 0.98864,-5.07258c-0.00561,-2.48062 -0.01626,-4.52454 -0.01825,-7.01241c-0.00427,-2.81559 -0.01718,-5.18724 -0.012,-8.00186c-0.00167,-2.81492 -0.02143,-5.18687 -0.01513,-7.99464c0.00361,-2.47651 -0.01887,-4.51716 -0.00827,-6.96409c-0.12823,-2.51086 -0.28955,-4.61546 -0.56494,-7.06992c-0.16417,-1.069 -0.21426,-1.78812 -0.26436,-2.50724c0.7679,-0.25425 1.53582,-0.50849 2.59734,-0.46423c0.62947,7.07684 0.96167,13.85537 1.30226,20.63347c0.33229,6.61267 0.59471,13.23079 1.09154,19.83119c0.07799,1.03608 1.23669,1.99083 1.75854,3.30409c-0.37573,1.44239 -0.6143,2.56385 -0.85287,3.68531z" fill="#59AFFE"/>
  <path id="svg_16" d="m97.1264,49.72959c1.05431,0.74826 2.10862,1.49651 3.58572,2.49914c0.42278,0.25438 0.53496,0.71292 0.45964,1.16029c-0.07138,3.15717 -0.06744,5.86697 -0.10164,8.92069c-0.08278,0.80314 -0.12743,1.26234 -0.52949,1.83572c-0.75118,1.13175 -1.43502,2.13326 -1.4924,3.16945c-0.42051,7.59453 -0.58497,15.20535 -1.12811,22.7897c-0.16718,2.33456 -1.26064,4.6028 -2.17254,6.65853c-1.06822,-2.4226 -1.89387,-4.60232 -2.34318,-6.90357c0.78051,-1.13178 1.49788,-2.12906 1.54034,-3.15429c0.41686,-10.0673 0.66808,-20.14154 1.09866,-30.20815c0.09697,-2.26712 0.7084,-4.51225 1.083,-6.76751z" fill="#62B5FE"/>
  <path id="svg_17" d="m120.79579,60.58857c-1.79231,1.69161 -3.99767,2.65348 -5.13396,4.33694c-3.85498,5.71127 -7.28039,11.71073 -11.00162,17.51564c-0.65585,1.02311 -1.94476,1.64039 -3.29444,2.05209c-0.34245,-2.76484 -0.33177,-5.13666 0.01947,-7.56023c2.60916,-3.0307 4.9328,-5.96964 7.13421,-8.99745c3.84176,-5.28393 7.6083,-10.62257 11.40635,-15.93828c0.31563,2.73074 0.63125,5.46149 0.86999,8.59129z" fill="#7EC8FE"/>
  <path id="svg_18" d="m104.9902,101.06021c3.6668,-5.68197 7.25977,-11.41391 11.04845,-17.01343c1.04484,-1.54424 2.67323,-2.69365 4.37798,-4.04564c0.39483,3.342 0.44555,6.70543 0.08671,10.54361c-1.67515,1.63552 -3.20659,2.61338 -4.15519,3.99221c-2.5795,3.74944 -4.91232,7.66858 -7.59746,11.39436c-0.75463,-0.39246 -1.25472,-0.65884 -1.90441,-1.21178c-0.71842,-1.4108 -1.28725,-2.53507 -1.85608,-3.65933z" fill="#59AFFE"/>
  <path id="svg_19" d="m143.93475,76.97803c0.01294,2.37164 0.02585,4.74329 -0.33224,7.55352c-1.8158,-0.76435 -3.64499,-1.71323 -4.63767,-3.21504c-3.92825,-5.94294 -7.53599,-12.09688 -11.40463,-18.08074c-0.82637,-1.27819 -2.24725,-2.17202 -3.39426,-3.24292c-0.02474,-2.15963 -0.04947,-4.31926 0.41224,-6.70433c1.59861,0.97495 2.90945,2.04631 3.78766,3.39864c3.34413,5.14956 6.36965,10.51554 9.89518,15.53298c1.37117,1.95139 3.75252,3.19298 5.67372,4.75789z" fill="#7EC8FE"/>
  <path id="svg_20" d="m143.97812,91.98601c-0.32706,1.42158 -0.65412,2.84315 -1.20459,4.82484c-0.4088,1.10105 -0.59419,1.64198 -1.12231,2.12988c-2.60831,-3.00843 -4.90511,-5.94049 -7.13225,-8.92456c-3.47541,-4.65655 -6.90359,-9.34834 -10.35178,-14.0252c-0.04771,-2.37273 -0.09544,-4.74546 0.26231,-7.49486c1.38521,0.46191 2.63595,1.12754 3.29977,2.16772c3.72575,5.83821 7.15246,11.87379 11.04136,17.5973c1.12544,1.65637 3.43874,2.50562 5.20749,3.72488z" fill="#68BAFF"/>
  <path id="svg_21" d="m143.98312,91.54932c-1.77375,-0.78257 -4.08705,-1.63182 -5.21249,-3.28819c-3.8889,-5.72351 -7.31561,-11.75909 -11.04136,-17.5973c-0.66382,-1.04018 -1.91456,-1.70581 -3.22777,-2.60728c-0.38225,-2.43661 -0.43102,-4.81032 -0.40767,-7.62386c1.21913,0.63106 2.64001,1.52489 3.46638,2.80308c3.86864,5.98386 7.47638,12.1378 11.40463,18.08074c0.99268,1.50181 2.82187,2.45069 4.62902,3.659c0.373,2.04927 0.38365,4.09319 0.38926,6.57381z" fill="#73C2FF"/>
  <path id="svg_22" d="m109.00524,106.05741c2.43059,-3.85187 4.76341,-7.77101 7.34291,-11.52045c0.9486,-1.37883 2.48004,-2.35669 4.09112,-3.53911c0.39723,5.98949 0.44897,12.00066 0.01561,18.48919c-2.79745,0.44874 -5.1098,0.42013 -7.59033,0.12785c-1.06481,-0.71936 -1.96141,-1.17505 -2.97309,-1.87757c-0.37212,-0.72453 -0.62917,-1.20222 -0.88622,-1.67991z" fill="#50A0F5"/>
  <path id="svg_23" d="m96.96574,49.4636c-0.21394,2.52125 -0.82537,4.76638 -0.92234,7.0335c-0.43058,10.06661 -0.6818,20.14085 -1.09866,30.20815c-0.04246,1.02523 -0.75983,2.02251 -1.58418,2.86292c-0.72634,-0.65386 -1.03249,-1.13787 -1.35505,-2.00803c-0.35252,-2.41246 -0.68864,-4.4388 -0.86134,-6.85384c0.72421,-11.42236 1.28501,-22.45602 1.84582,-33.48969c1.2717,0.66033 2.5434,1.32066 3.97575,2.24699z" fill="#6FBFFE"/>
  <path id="svg_24" d="m143.95285,76.53505c-1.9393,-1.12193 -4.32065,-2.36352 -5.69182,-4.31491c-3.52553,-5.01744 -6.55105,-10.38342 -9.89518,-15.53298c-0.87821,-1.35233 -2.18905,-2.42369 -3.65433,-3.77452c0.27434,-2.02372 0.90178,-3.89702 1.98669,-5.68476c4.35259,6.21984 8.10971,12.44948 12.23816,18.42246c1.05472,1.52591 3.2851,2.23923 4.97531,3.32589c0.01976,2.37195 0.03952,4.7439 0.04117,7.55882z" fill="#89D0FF"/>
  <path id="svg_25" d="m75.83025,99.09873c-1.86773,-1.43365 -3.73547,-2.86732 -5.73697,-5.04464c-0.38265,-3.51951 -0.73079,-6.29088 -0.85582,-9.07229c-0.16449,-3.65889 -0.15348,-7.32566 0.02168,-10.7997c1.06209,1.07522 1.88455,1.9611 2.86762,3.13457c1.72551,2.10217 3.29044,3.91675 4.85723,6.05508c0.0094,0.75533 0.01694,1.18693 -0.23234,1.91991c-0.23159,2.51147 -0.09992,4.7269 -0.2105,6.93019c-0.11535,2.29839 -0.46415,4.58508 -0.7109,6.87688z" fill="#54A9FC"/>
  <path id="svg_26" d="m80.98968,60.37307c0.49647,0.179 0.99293,0.35799 1.97935,0.67543c0.74402,0.3596 0.95258,0.61757 1.14938,1.27887c1.00129,3.12622 1.96881,5.88592 2.92279,8.9818c-0.01733,0.78474 -0.02111,1.23331 -0.39442,1.79682c-0.6225,2.39578 -0.98218,4.67085 -1.10608,6.95868c-0.25179,4.64925 -0.37621,9.30539 -0.83735,13.79737c-1.42395,-1.72145 -2.56368,-3.28159 -3.53828,-5.22448c0.38806,-2.15638 0.84878,-3.93757 0.79263,-5.7023c-0.23937,-7.52339 -0.63158,-15.0419 -0.96802,-22.56219z" fill="#5DB3FE"/>
  <path id="svg_27" d="m181.14383,89.07198c-1.80533,1.5832 -3.61064,3.16642 -6.09064,4.75441c-0.96429,-1.61808 -1.50015,-3.24158 -1.49589,-4.86366c0.01137,-4.3267 0.25499,-8.65279 0.56865,-13.26818c1.15081,-1.46076 2.13928,-2.63248 3.12774,-3.80418c1.33188,0.03565 2.66377,0.0713 4.37418,0.64295c0.12341,2.12787 -0.29584,3.71379 -0.35384,5.3128c-0.13557,3.73861 -0.09779,7.48351 -0.1302,11.22586z" fill="#59AEFD"/>
  <path id="svg_28" d="m149.98702,94.98277c-0.65902,-0.99235 -1.81772,-1.9471 -1.89571,-2.98318c-0.49683,-6.6004 -0.75925,-13.21852 -1.09154,-19.83119c-0.34059,-6.7781 -0.67279,-13.55663 -1.01839,-20.78906c0.7674,-1.11631 1.54451,-1.77853 2.64629,-2.05883c0.67526,11.16618 0.9594,21.95355 1.46025,32.73084c0.0629,1.35357 1.26802,2.65405 1.93521,4.37173c-0.68449,3.11497 -1.3603,5.83733 -2.03611,8.55969z" fill="#65B8FF"/>
  <path id="svg_29" d="m173.96359,75.98361c-0.1513,4.32633 -0.39492,8.65242 -0.40629,12.97912c-0.00426,1.62208 0.5316,3.24558 1.18837,4.97564c-2.41786,2.48151 -5.20287,4.8558 -8.33351,6.92874c0.01315,-3.4208 0.53349,-6.5339 0.65678,-9.66265c0.0547,-1.38776 -0.69298,-2.80713 -0.92264,-4.50139c1.37877,-2.09898 2.60376,-3.90873 3.98157,-5.99619c0.73979,-1.37346 1.32675,-2.46921 2.15454,-3.71129c0.72095,-0.43489 1.20106,-0.72343 1.68118,-1.01198z" fill="#54A9FC"/>
  <path id="svg_30" d="m119.95385,51.64978c-3.8261,5.66321 -7.59264,11.00185 -11.4344,16.28578c-2.20141,3.02781 -4.52505,5.96675 -7.14911,8.56102c-0.33778,-2.42805 -0.3201,-4.4714 0.03834,-6.5685c1.3898,-1.2637 2.56146,-2.38886 3.4671,-3.69803c4.41627,-6.38413 8.76147,-12.81741 13.13181,-19.23331c0.6581,1.43518 1.3162,2.87036 1.94626,4.65304z" fill="#89D0FF"/>
  <path id="svg_31" d="m124.09545,76.43077c3.51993,4.23706 6.94811,8.92885 10.42352,13.5854c2.22714,2.98407 4.52394,5.91613 7.00438,9.21708c-0.36495,1.48216 -0.94478,2.61876 -1.5246,3.75536c-0.49535,0.26385 -0.99069,0.52772 -1.88492,0.59686c-3.36285,-4.90435 -6.2366,-9.67448 -9.33388,-14.29475c-1.29463,-1.93122 -3.06409,-3.54411 -4.61766,-5.30174c-0.04619,-2.3728 -0.09239,-4.74559 -0.06684,-7.55821z" fill="#5DB3FE"/>
  <path id="svg_32" d="m181.4567,88.95624c-0.28046,-3.62661 -0.31824,-7.37151 -0.18267,-11.11012c0.058,-1.59901 0.47725,-3.18493 0.7347,-5.18732c3.86128,1.38672 7.72018,3.18396 12.79533,5.54763c-5.25683,4.28874 -9.14566,7.46141 -13.34736,10.74981z" fill="#65B6FB"/>
  <path id="svg_33" d="m108.75069,105.93132c0.5116,0.60378 0.76865,1.08147 0.95582,2.11041c-2.6741,1.93839 -5.24957,4.37175 -7.88993,4.44432c-3.20479,0.08807 -3.36901,1.6681 -3.86572,3.70916c-2.59503,-1.67064 -5.19007,-3.34127 -7.9144,-5.69307c0.56778,-2.28762 1.26486,-3.89406 2.21543,-5.28757c0.94224,1.77914 1.63098,3.34537 2.43617,5.1764c2.43733,-3.61494 3.37777,-5.00976 4.5646,-6.38773c0.2464,0.01685 0.73938,0.0479 0.81227,0.37146c1.20417,1.36733 2.33545,2.4111 3.41863,3.41049c1.38985,-1.09971 2.45109,-1.93941 3.51232,-2.7791c0.50009,0.26639 1.00018,0.53277 1.75481,0.92523z" fill="#448EF0"/>
  <path id="svg_34" d="m124.0907,84.43907c1.62516,1.30754 3.39462,2.92043 4.68925,4.85165c3.09728,4.62027 5.97103,9.3904 9.07933,14.41338c-0.4326,1.122 -1.00953,1.93067 -2.05357,3.01912c-0.90392,0.2935 -1.34073,0.30719 -2.03464,0.09541c-3.37446,-4.42639 -6.49183,-8.6273 -9.60919,-12.82821c-0.04759,-3.03375 -0.09518,-6.06751 -0.07118,-9.55135z" fill="#54A9FC"/>
  <path id="svg_35" d="m117.98622,46.69732c-4.34897,6.71532 -8.69417,13.1486 -13.11044,19.53273c-0.90564,1.30917 -2.0773,2.43433 -3.4899,3.27321c-0.40499,-2.07139 -0.44642,-3.7717 -0.48785,-5.47201c0.04466,-0.4592 0.08931,-0.9184 0.50628,-1.77115c1.40078,-1.57952 2.5017,-2.71083 3.4449,-3.9611c3.68151,-4.88002 7.31309,-9.79771 10.96324,-14.7014c0.71747,0.93343 1.43493,1.86687 2.17377,3.09972z" fill="#95D8FF"/>
  <path id="svg_36" d="m80.67493,60.21136c0.65119,7.682 1.0434,15.20051 1.28277,22.7239c0.05615,1.76473 -0.40457,3.54592 -1.07165,5.54115c-1.58863,-1.0143 -2.73311,-2.25021 -3.87759,-3.48613c-0.00753,-0.4316 -0.01507,-0.8632 0.13619,-1.98424c0.36711,-1.8142 0.78923,-2.94674 0.74861,-4.06244c-0.24023,-6.59745 -0.58792,-13.19098 -0.89946,-19.78582c1.12212,0.29729 2.24424,0.59458 3.68113,1.05358z" fill="#68BAFF"/>
  <path id="svg_37" d="m152.03183,86.03048c-0.67589,-1.32508 -1.88101,-2.62556 -1.94391,-3.97913c-0.50085,-10.77729 -0.78499,-21.56466 -1.15986,-32.83047c0.80775,-1.00857 1.63975,-1.5356 2.77391,-1.6131c0.63583,9.91298 0.90531,19.37967 1.38305,28.83584c0.06093,1.20597 1.20859,2.35703 1.7301,3.85438c-1.00956,2.12474 -1.89642,3.92861 -2.78329,5.73248z" fill="#73C2FF"/>
  <path id="svg_38" d="m63.91091,89.29851c-4.11671,-3.24274 -8.23341,-6.48548 -13.61425,-10.72398c4.25126,-2.3562 7.54798,-4.18337 11.25725,-5.61177c1.06069,5.7111 1.70885,11.02343 2.357,16.33575z" fill="#65B6FB"/>
  <path id="svg_39" d="m87.0163,72.99104c0.00379,-0.44856 0.00757,-0.89713 0.39492,-1.79899c0.77878,-1.29232 1.47316,-2.11424 1.52221,-2.97302c0.42012,-7.3547 0.72338,-14.71607 1.06157,-22.07545c0.81297,0.24294 1.62593,0.48588 2.71695,0.90093c-0.28277,11.20577 -0.84357,22.23943 -1.82184,33.4155c-1.56958,-2.39472 -2.72169,-4.93184 -3.87381,-7.46897z" fill="#7EC8FE"/>
  <path id="svg_40" d="m143.93774,68.54041c-1.71627,-0.65084 -3.94665,-1.36416 -5.00137,-2.89007c-4.12845,-5.97298 -7.88557,-12.20262 -11.95213,-18.658c0.32824,-1.20558 0.82792,-2.09005 1.80687,-2.82822c3.59979,4.79277 6.56018,9.56 9.92483,14.02239c1.23416,1.63682 3.42565,2.55182 5.18044,3.79608c0.02249,2.04066 0.04497,4.08131 0.04136,6.55782z" fill="#95D8FF"/>
  <path id="svg_41" d="m64.06898,89.57704c-0.80622,-5.59085 -1.45438,-10.90318 -2.13185,-16.66581c1.52738,-0.65043 3.08406,-0.85057 5.24363,-1.05291c0.60289,-0.00219 1.03074,0.03766 1.07978,0.3168c0.28569,0.79197 0.52234,1.30481 0.75898,1.81764c0.06446,3.66338 0.05345,7.33015 0.21794,10.98904c0.12503,2.78141 0.47317,5.55278 0.70028,8.79167c-1.91807,-0.99728 -3.81437,-2.45759 -5.86876,-4.19643z" fill="#59AEFD"/>
  <path id="svg_42" d="m115.64925,43.29541c-3.48695,5.20588 -7.11853,10.12357 -10.80004,15.00359c-0.9432,1.25027 -2.04412,2.38158 -3.40677,3.61717c-0.33812,-2.66018 -0.34206,-5.36998 0.03864,-8.60027c3.09375,-5.05286 5.80286,-9.58524 8.51198,-14.11763c1.831,1.26498 3.662,2.52996 5.65619,4.09714z" fill="#A1E0FE"/>
  <path id="svg_43" d="m154.93782,79.97715c-0.64421,-1.1765 -1.79187,-2.32756 -1.8528,-3.53353c-0.47774,-9.45617 -0.74722,-18.92286 -1.07997,-28.84553c0.78215,-0.82194 1.56337,-1.18464 2.6696,-1.0641c0.66173,7.48316 0.92658,14.48807 1.41402,21.47747c0.07159,1.02637 1.20061,1.97899 1.71757,3.29986c-1.00212,2.79134 -1.88145,5.24856 -2.78517,7.94607c-0.02438,0.2403 -0.08325,0.71976 -0.08325,0.71976z" fill="#7EC8FE"/>
  <path id="svg_44" d="m161.97235,60.16273c0.75743,-0.05752 1.51486,-0.11503 2.65022,0.32513c0.07038,5.11814 -0.46713,9.73818 -0.47557,14.35919c-0.00743,4.06128 0.57759,8.12363 0.84296,12.51368c-1.36488,1.7816 -2.67178,3.23502 -3.98242,4.2142c-0.00493,-4.96517 0.13089,-9.46159 -0.04871,-13.94538c-0.15637,-3.90435 -0.66888,-7.79444 -1.00924,-12.07338c0.04402,-1.40293 0.07324,-2.42331 0.38838,-3.53225c0.73539,-0.67943 1.18489,-1.27031 1.63438,-1.86119z" fill="#62B5FE"/>
  <path id="svg_45" d="m134.02817,107.0441c0.43681,-0.01369 0.87362,-0.02738 1.63772,-0.05625c1.51244,0.76198 2.63704,1.66834 3.90747,2.26336c0.66514,0.31151 2.10199,-0.22603 2.3133,0.13425c2.60376,4.4395 5.19824,1.26746 7.84076,-0.0332c0.9615,0.88505 1.87904,1.72963 3.13238,2.65711c-3.79504,2.01078 -7.92586,3.93865 -12.45581,5.45993c-3.42001,-2.79047 -6.44089,-5.17435 -9.25732,-7.78511c1.0968,-1.03129 1.98915,-1.83569 2.8815,-2.64009z" fill="#4087ED"/>
  <path id="svg_46" d="m165.04797,87.03256c-0.32338,-4.06188 -0.9084,-8.12423 -0.90097,-12.18551c0.00844,-4.62101 0.54595,-9.24105 0.8546,-14.32159c1.10028,-0.82434 2.19948,-1.1886 3.64763,-1.06323c0.01586,6.02964 -0.46934,11.5675 -0.5479,17.11111c-0.02067,1.46128 1.21497,2.94035 1.87371,4.41126c-1.22498,1.80974 -2.44997,3.61949 -4.06478,5.72989c-0.38983,0.30066 -0.86229,0.31807 -0.86229,0.31807z" fill="#68BAFF"/>
  <path id="svg_47" d="m76.75165,85.29166c1.40129,0.93454 2.54577,2.17045 3.96926,3.56752c1.41876,1.72127 2.55849,3.28141 3.97976,5.25245c0.28153,0.4109 0.26562,0.91046 -0.08483,1.01162c-0.70371,1.71424 -0.99923,3.34285 -1.42785,4.93566c-0.36648,1.36191 -0.88562,2.68275 -1.33724,4.02176c-1.90148,-1.46654 -3.80296,-2.93307 -5.86247,-4.69078c0.08872,-2.58296 0.43752,-4.86965 0.55287,-7.16804c0.11058,-2.20329 -0.02109,-4.41872 0.2105,-6.93019z" fill="#4D9EF7"/>
  <path id="svg_48" d="m133.77107,106.81863c-0.63525,1.02987 -1.5276,1.83427 -3.04704,2.88759c-2.60816,0.24469 -4.58921,0.24047 -6.57027,0.23624c-0.04514,-5.00896 -0.09028,-10.01792 -0.06364,-15.48946c3.18912,3.73833 6.30649,7.93924 9.68095,12.36563z" fill="#4D9EF7"/>
  <path id="svg_49" d="m143.92947,61.57632c-1.78788,-0.83799 -3.97937,-1.75299 -5.21353,-3.38981c-3.36465,-4.46239 -6.32504,-9.22962 -9.64786,-14.16478c0.9675,-1.46502 2.13727,-2.64133 3.63256,-3.50146c2.08087,3.66782 3.58006,7.1936 5.69317,10.30202c1.16091,1.7077 3.35599,2.71234 5.0848,4.03398c0.16131,2.10459 0.32263,4.20919 0.45086,6.72005z" fill="#9DDEFF"/>
  <path id="svg_50" d="m109.60785,39.10243c-2.32391,4.62823 -5.03302,9.16061 -8.05145,13.7661c-0.30932,0.07312 -0.4215,-0.38542 -0.51985,-0.59891c-0.09835,-5.12301 -0.09835,-10.03252 -0.09835,-16.18834c3.15362,1.11357 5.71903,2.01944 8.66965,3.02115z" fill="#AEE9FE"/>
  <path id="svg_51" d="m164.98996,87.36073c0.05801,-0.32817 0.53047,-0.34558 0.76651,-0.357c0.61949,1.3936 1.36717,2.81297 1.31247,4.20073c-0.12329,3.12875 -0.64363,6.24185 -0.97452,9.82224c-1.76779,2.00697 -3.56349,3.553 -5.66618,5.24244c-0.4634,-2.93882 -0.6198,-6.02103 -1.05852,-9.52901c0.35898,-1.8475 1.00026,-3.26924 1.64156,-4.69097c1.3069,-1.45341 2.6138,-2.90683 3.97868,-4.68843z" fill="#4D9EF7"/>
  <path id="svg_52" d="m89.70875,46.01454c-0.05194,7.48842 -0.3552,14.84979 -0.77532,22.20449c-0.04905,0.85878 -0.74343,1.6807 -1.50866,2.63683c-1.33755,-2.64257 -2.30507,-5.40227 -2.93934,-8.6442c1.05736,-5.84973 1.78146,-11.21721 2.50558,-16.58469c0.8105,0.08618 1.621,0.17236 2.71774,0.38757z" fill="#89CEFB"/>
  <path id="svg_53" d="m160.05206,62.11248c-0.02923,1.02038 -0.05845,2.04076 -0.34979,3.68397c-0.76584,2.14213 -1.26953,3.66144 -1.77324,5.18075c-0.63975,-0.98675 -1.76877,-1.93937 -1.84036,-2.96574c-0.48744,-6.9894 -0.75229,-13.99431 -1.08757,-21.44973c1.11201,-0.72818 2.22264,-1.00084 3.66958,-0.76594c0.68468,5.77727 1.03304,11.04698 1.38138,16.31669z" fill="#89CEFB"/>
  <path id="svg_54" d="m76.60236,59.05813c0.70298,6.69449 1.05067,13.28802 1.2909,19.88547c0.04062,1.1157 -0.3815,2.24824 -0.75048,3.7387c-1.72558,-1.44888 -3.29051,-3.26346 -4.68811,-5.5779c0.61787,-2.49603 1.45779,-4.49641 1.43631,-6.48749c-0.04223,-3.91164 -0.56349,-7.81811 -0.88654,-11.72672c1.06883,0.02277 2.13764,0.04553 3.59792,0.16794z" fill="#73C2FF"/>
  <path id="svg_55" d="m86.60791,45.46991c-0.34102,5.52454 -1.06512,10.89202 -2.15627,16.37522c-0.53003,-0.17906 -0.73859,-0.43703 -1.21593,-0.7693c-1.44418,-4.88142 -2.6651,-9.65174 -4.04102,-15.02764c2.28076,-0.23856 4.65544,-0.48695 7.41322,-0.57828z" fill="#95D8FF"/>
  <path id="svg_56" d="m170.12787,80.70688c-0.81157,-1.19319 -2.04721,-2.67226 -2.02654,-4.13354c0.07856,-5.54361 0.56376,-11.08147 0.89797,-17.05491c0.75134,-0.55846 1.50162,-0.68348 2.62494,-0.24398c0.38783,6.33216 0.40257,12.09982 0.41732,17.86747c-0.58694,1.09575 -1.1739,2.1915 -1.91369,3.56496z" fill="#73C2FF"/>
  <path id="svg_58" d="m82.0197,104.37305c0.28267,-1.63139 0.80181,-2.95223 1.16829,-4.31414c0.42862,-1.59281 0.72414,-3.22142 1.59224,-4.65014c2.0805,1.99235 3.64616,3.80034 5.25564,5.9293c0.6834,1.43516 1.32296,2.54937 1.96252,3.66357c-0.69707,1.60644 -1.39415,3.21288 -2.12904,5.23843c-2.58543,-1.57881 -5.13306,-3.57672 -7.84965,-5.86702z" fill="#4895F3"/>
  <path id="svg_59" d="m160.33797,62.02392c-0.63425,-5.18115 -0.98261,-10.45086 -1.32924,-16.15927c2.09242,-0.27644 4.18312,-0.11418 6.93829,0.09965c-1.63348,4.97142 -3.09146,9.40867 -4.26205,14.02218c-0.16211,0.76713 -0.61161,1.35801 -1.347,2.03744z" fill="#95D8FF"/>
  <path id="svg_60" d="m98.21544,116.45856c0.23213,-2.30441 0.39635,-3.88444 3.60114,-3.97251c2.64036,-0.07257 5.21583,-2.50593 8.005,-4.19748c1.08156,0.15127 1.97816,0.60696 2.88504,1.63913c-1.91143,2.97232 -3.83315,5.36816 -5.75487,7.76401c-2.82391,-0.32326 -5.64782,-0.64653 -8.73631,-1.23315z" fill="#4087ED"/>
  <path id="svg_61" d="m124.17243,110.28546c1.96239,-0.33877 3.94344,-0.33455 6.34715,-0.35236c3.44352,2.36185 6.4644,4.74573 9.4975,7.50223c-6.40873,0.49775 -11.78112,-1.69027 -15.84465,-7.14987z" fill="#3573E2"/>
  <path id="svg_62" d="m68.2115,71.89598c0,0 -0.42785,-0.03985 -0.63164,0.01575c-2.09828,-2.98802 -3.99279,-6.03163 -6.28715,-9.7176c2.36703,-1.04613 4.65819,-2.05874 7.34552,-2.64906c0.95982,4.4563 3.08331,8.59792 -0.42673,12.35091z" fill="#89CEFB"/>
  <path id="svg_63" d="m68.26054,72.17512c3.461,-4.03213 1.33751,-8.17375 0.75249,-12.6116c1.0511,-0.55681 2.12357,-0.70979 3.59372,-0.76805c0.72074,4.00333 1.242,7.9098 1.28423,11.82144c0.02148,1.99108 -0.81844,3.99146 -1.5969,6.19991c-1.15039,-0.67362 -1.97285,-1.5595 -3.03494,-2.63472c-0.47626,-0.70217 -0.71291,-1.21501 -0.9986,-2.00698z" fill="#7EC8FE"/>
  <path id="svg_64" d="m172.28241,76.99559c-0.2556,-5.62132 -0.27034,-11.38898 -0.28645,-17.63258c1.07719,-0.45699 2.15573,-0.43804 3.62159,0.1501c0.70595,4.20203 1.02459,7.83486 1.34322,11.46769c0,0 0.19891,0.43812 0.24593,0.67385c-0.94147,1.40742 -1.92994,2.57914 -3.08075,4.0399c-0.64248,0.57761 -1.12259,0.86615 -1.84354,1.30104z" fill="#7EC8FE"/>
  <path id="svg_65" d="m134.93109,38.83897c2.41931,-0.83163 4.83862,-1.66325 8.04776,-2.76638c0,4.55735 0,8.27956 -0.40326,12.40422c-2.81701,-2.94432 -5.23076,-6.29108 -7.6445,-9.63784z" fill="#AEE9FE"/>
  <path id="svg_66" d="m134.64874,38.92452c2.69609,3.26121 5.10984,6.60797 7.85851,10.01254c0.39784,0.80717 0.46075,1.55653 0.55829,2.684c0.08473,1.09722 0.13482,1.81634 0.29899,2.88534c-1.61473,-0.97177 -3.80981,-1.97641 -4.97072,-3.68411c-2.11311,-3.10842 -3.6123,-6.6342 -5.37971,-10.35184c0.44273,-0.73079 0.89752,-1.09558 1.63464,-1.54593z" fill="#A1E0FE"/>
  <path id="svg_67" d="m107.32828,117.71867c1.54519,-2.42281 3.46691,-4.81865 5.54655,-7.5273c2.47025,-0.2842 4.7826,-0.25559 7.52654,-0.24311c-2.36656,5.23952 -7.46579,6.62893 -13.07309,7.77041z" fill="#3573E2"/>
  <path id="svg_69" d="m294.14618,135.89725c-0.52634,-2.84064 -1.0527,-5.68125 -1.66709,-8.99708c3.32425,0 7.33918,0 11.3541,0c0.07275,0.38394 0.14554,0.76788 0.21832,1.15182c-2.08166,0.96655 -4.1633,1.93309 -6.78723,2.8314c-0.78396,0.62158 -1.0256,1.31139 -1.27325,2.35633c-0.61893,1.12258 -1.23187,1.89006 -1.84485,2.65753z" fill="#B9BBCF"/>
  <path id="svg_70" d="m177.14136,70.69633c-0.49922,-3.34836 -0.81786,-6.98119 -1.13517,-11.05784c2.38268,0.40967 4.76401,1.26318 8.10009,2.45888c-2.63391,3.22796 -4.70914,5.77123 -6.96492,8.59896z" fill="#89CEFB"/>
  <path id="svg_72" d="m294.17389,136.20935c0.58527,-1.07957 1.19821,-1.84705 2.10028,-3.0175c0.49792,-0.70265 0.70676,-1.00232 0.91559,-1.30199c0.76901,2.37134 1.53799,4.74269 2.18808,6.7473c-2.48734,0 -3.88031,0 -5.52097,0c0.06189,-0.37984 0.20334,-1.24776 0.31702,-2.42781z" fill="#6F729C"/>
  <path id="svg_73" d="m332.57202,136.01678c-0.25519,-2.35231 -0.54846,-4.71875 -0.73715,-7.53457c2.67642,-2.61861 4.17676,-0.80059 5.155,1.2503c-0.73389,0.21506 -0.95343,0.2258 -1.17294,0.23654c0,0 -0.32975,0.01888 -0.91492,0.01179c-1.20191,2.0177 -1.81867,4.04249 -2.4354,6.06727c0,0 0.06733,-0.04544 0.10541,-0.03133z" fill="#1B1F62"/>
  <path id="svg_74" d="m311.88531,132.49545c0.69385,-1.30391 1.36432,-2.6223 2.14072,-3.87501c0.04559,-0.07361 0.94574,0.38238 1.49436,1.00752c-0.1171,0.84233 -0.28037,1.26907 -0.66648,2.00735c-1.13812,0.49442 -2.05334,0.67728 -2.9686,0.86014z" fill="#B9BBCF"/>
  <path id="svg_75" d="m311.90771,132.50751c0.89286,-0.19492 1.80808,-0.37778 3.38563,-0.97553c1.53832,-0.45102 2.41436,-0.48713 3.2904,-0.52324c0.24625,0.51645 0.49249,1.03289 0.1445,1.74483c-2.64548,0.04955 -4.69668,-0.0964 -6.74789,-0.24236c0,0 -0.05027,0.00838 -0.07264,-0.0037z" fill="#1B1F62"/>
  <path id="svg_76" d="m332.82281,136.38162c0.26053,-2.35829 0.87729,-4.38308 1.91456,-6.41389c-0.23911,2.24511 -0.89875,4.49626 -1.91456,6.41389z" fill="#A2A4BF"/>
  <path id="svg_77" d="m311.72687,132.75266c2.30469,-0.09549 4.35589,0.05046 6.84839,0.20153c-0.29749,0.35622 -1.03623,0.70731 -2.48743,1.09565c-1.19968,0.04985 -1.68692,0.06243 -2.17413,0.07501c-0.81342,-0.37692 -1.62687,-0.75385 -2.18683,-1.37219z" fill="#F1F1F5"/>
  <path id="svg_78" d="m313.90485,134.43582c0.49606,-0.32355 0.9833,-0.33613 1.83593,-0.31447c-0.08786,1.27953 -0.5411,2.52481 -1.47619,3.48687c-0.5604,-0.74633 -0.63895,-1.20945 -0.71753,-1.67255c0.1163,-0.39629 0.23263,-0.79259 0.35779,-1.49985z" fill="#6F729C"/>
  <path id="svg_79" d="m313.28027,135.95834c0.34537,0.44043 0.42392,0.90355 0.60489,1.70694c-0.5946,0.02535 -1.29159,-0.28956 -1.98858,-0.60447c0.37228,-0.35993 0.74459,-0.71985 1.38369,-1.10247z" fill="#1B1F62"/>
  <path id="svg_80" d="m318.31567,130.74799c-0.60797,0.29686 -1.48401,0.33297 -2.79946,0.47244c-0.27619,-0.3234 -0.11292,-0.75014 0.14178,-1.38425c0.85751,0.07877 1.62353,0.36492 2.65768,0.91181z" fill="#C9CADA"/>
  <path id="svg_81" d="m335.90863,130.2771c0.12781,-0.31879 0.34735,-0.32953 0.89642,-0.32083c0.17218,0.79898 0.01481,1.57854 -0.30029,3.13917c-0.27139,-1.35061 -0.38791,-1.93046 -0.59613,-2.81834z" fill="#6F729C"/>
  <path id="svg_82" d="m335.51141,137.67836c0.70835,0.00542 1.1121,0.24367 1.51584,0.48192c-0.33258,0.27098 -0.66516,0.54198 -0.99774,0.81296c-0.27423,-0.35401 -0.54846,-0.70803 -0.5181,-1.29488z" fill="#C9CADA"/>
  <path id="svg_83" d="m297.10525,131.70605c-0.12432,0.48348 -0.33316,0.78315 -0.8251,1.13068c-0.04147,-0.64195 0.20017,-1.33176 0.62616,-1.86728c0.18436,0.15431 0.11444,0.5528 0.19894,0.7366z" fill="#F1F1F5"/>
  <path id="svg_84" d="m309.96448,139.25487c0.10159,0.15779 0.05124,0.31733 0.00088,0.47686c-0.05093,-0.15837 -0.10186,-0.31674 -0.00088,-0.47686z" fill="#1B1F62"/>
  <path id="svg_85" d="m249.5733,60.95137c1.07419,0.59038 1.68975,1.17367 2.30532,1.75697c-0.60857,0.42583 -1.2076,1.20378 -1.82724,1.22057c-4.13855,0.11217 -8.28275,0.11172 -12.42159,0.00758c-0.58015,-0.01459 -1.14102,-0.79602 -1.71081,-1.22248c0.58836,-0.58808 1.15657,-1.65979 1.76838,-1.68529c3.80367,-0.15858 7.61713,-0.08261 11.88594,-0.07735z" fill="#0C1158"/>
  <path id="svg_86" d="m240.71852,89.02286c1.78923,-1.13874 3.55765,-1.82881 5.32607,-2.51889c0.38823,0.32554 0.77645,0.65109 1.16468,0.97663c-0.43684,1.43051 -0.63792,3.9242 -1.35665,4.08359c-1.83933,0.40789 -4.8205,1.83755 -5.1341,-2.54133z" fill="#1B1F62"/>
  <path id="svg_87" d="m100.54063,64.14543c0.39883,1.58613 0.44026,3.28644 0.50449,5.41158c0.00512,2.46817 -0.01256,4.51152 -0.01533,6.99132c0.00421,2.80825 -0.00647,5.18007 -0.00791,7.99491c0.15768,3.57564 0.30614,6.70828 0.71127,10.15502c0.26017,1.06402 0.26364,1.81394 0.12145,3.26119c-0.71797,2.49544 -1.29027,4.29357 -1.86256,6.09169c0,0 -0.49298,-0.03105 -0.8848,-0.35911c-1.30024,-2.44739 -2.20867,-4.56672 -3.1171,-6.68604c0.66934,-2.29861 1.7628,-4.56685 1.92998,-6.90141c0.54314,-7.58435 0.7076,-15.19517 1.12811,-22.7897c0.05738,-1.03619 0.74122,-2.0377 1.4924,-3.16945z" fill="#59AFFE"/>
  <path id="svg_88" d="m154.81512,80.298c0.1227,-0.32085 0.18157,-0.80031 0.57952,-0.91842c0.80063,1.73079 1.36673,3.56171 1.57243,5.43227c0.44611,4.05652 0.70792,8.13331 1.04508,12.20181c-1.78507,2.62025 -3.57015,5.24051 -5.67362,8.32815c-1.18796,-2.59424 -1.96222,-4.28506 -3.03901,-6.16435c-0.06397,-1.30993 0.1746,-2.43139 0.55033,-3.87378c0.81298,-3.04327 1.48879,-5.76563 2.17328,-8.8806c0.89557,-2.19647 1.78243,-4.00034 2.79199,-6.12508z" fill="#54A9FC"/>
  <path id="svg_89" d="m158.25519,97.00691c-0.5802,-4.06175 -0.84201,-8.13854 -1.28812,-12.19506c-0.2057,-1.87056 -0.7718,-3.70148 -1.54805,-5.67257c0.50577,-2.5794 1.3851,-5.03662 2.38722,-7.82796c0.6265,-1.85343 1.13019,-3.37274 1.88123,-5.13233c0.60248,3.65612 1.11499,7.54621 1.27136,11.45056c0.1796,4.48379 0.04378,8.98021 0.04871,13.94537c-0.63756,1.89597 -1.27884,3.31771 -1.97171,5.07579c-0.05159,0.33634 -0.53763,0.34945 -0.78064,0.3562z" fill="#59AFFE"/>
  <path id="svg_90" d="m140.14201,103.29535c0.43656,-1.44334 1.01639,-2.57994 1.72408,-4.00906c0.31325,-0.83346 0.49864,-1.37439 0.90497,-2.10427c1.33688,1.42747 2.45282,3.0439 3.89991,4.74343c-1.64148,1.73686 -2.79443,6.84552 -6.52896,1.3699z" fill="#50A0F5"/>
  <path id="svg_91" d="m100.06493,104.3747c0.4994,-2.12168 1.0717,-3.91981 1.78904,-6.04009c0.96368,0.58694 1.78233,1.49606 2.8686,2.56538c0.83646,1.28448 1.40529,2.40875 2.12371,3.81955c-0.91163,1.12624 -1.97287,1.96594 -3.36272,3.06565c-1.08318,-0.99939 -2.21446,-2.04316 -3.41863,-3.41049z" fill="#4D9EF7"/>
  <path id="svg_92" d="m95.74757,96.76311c1.151,2.3622 2.05943,4.48153 3.11327,6.91208c-0.79501,1.70602 -1.73545,3.10084 -4.17278,6.71578c-0.80519,-1.83103 -1.49393,-3.39726 -2.43617,-5.1764c-0.89306,-1.32713 -1.53262,-2.44134 -1.95479,-4.19309c0.71987,-4.78344 1.22234,-8.92932 1.72482,-13.07521c0.30615,0.48403 0.6123,0.96804 0.9623,1.74343c0.86949,2.47109 1.69514,4.65081 2.76335,7.07341z" fill="#4D9EF7"/>
  <path id="svg_93" d="m92.00551,87.56014c-0.48607,4.53202 -0.98854,8.6779 -1.75225,13.14038c-1.82687,-1.49141 -3.39253,-3.2994 -5.12258,-5.39291c-0.16439,-0.28552 -0.14848,-0.78508 -0.14579,-1.03466c0.1796,-4.90289 0.30402,-9.55903 0.55581,-14.20828c0.1239,-2.28783 0.48358,-4.5629 1.10608,-6.95868c1.52164,2.42218 2.67375,4.9593 4.07992,7.74272c0.59017,2.27263 0.92629,4.29897 1.27881,6.71143z" fill="#54A9FC"/>
  <path d="m277.49738,133.20808c0,0 0,0 -0.41666,0c0,0 -0.41669,0 -0.83334,0c0,0 -0.41666,0 -0.41666,0c-0.83334,0 -1.61606,-0.20561 -2.91666,-0.41667c-1.23386,-0.20023 -2.5,0 -3.33331,0c-0.83334,0 -1.25,0 -1.25,0c-0.41666,-0.41666 -1.12225,-0.60783 -1.66666,-0.83333c-0.7699,-0.31891 -1.25,0 -2.08331,0c-0.41669,0 -0.83334,0 -1.25,0c0,0 0.41666,0 0.83331,0c0.41669,0 1.25,0 3.33331,0c3.75,0 10.41663,0 19.58325,0c8.33328,0 13.7305,0.20793 17.08325,0.41667c1.24759,0.07767 2.08331,0.41666 2.08331,0c0,-0.41666 -1.66666,0 -2.91666,0c-2.08331,0 -4.16663,-0.41667 -7.08328,-0.83333c-2.91666,-0.41667 -5.83331,-0.41667 -8.33331,-0.83333l-2.08331,0l-0.83331,0l-0.83334,0" id="svg_94" fill="none"/>
  <rect id="svg_95" height="28.33319" width="111.66611" y="116.95816" x="254.16415" fill="#0C1158"/>
  <text stroke="#000000" xml:space="preserve" text-anchor="start" font-family="Noto Sans JP" font-size="12" stroke-width="0" id="svg_96" y="124.87479" x="266.66409" fill="#e5e5e5">-人事·薪资-</text>
 </g>
</svg>